<?xml version="1.0" encoding="UTF-8"?>
<svg width="24px" height="24px" viewBox="0 0 24 24" version="1.1" xmlns="http://www.w3.org/2000/svg" xmlns:xlink="http://www.w3.org/1999/xlink">
    <title>icon/crown</title>
    <g id="UI-Design" stroke="none" stroke-width="1" fill="none" fill-rule="evenodd">
        <g id="message/my-room/info-" transform="translate(-148.000000, -174.000000)">
            <g id="content-block-1" transform="translate(16.000000, 118.000000)">
                <g id="img" transform="translate(132.000000, 0.000000)">
                    <g id="icon/crown" transform="translate(0.000000, 56.000000)">
                        <path d="M0,0 L24,0 L24,24 L4,24 C1.790861,24 2.705415e-16,22.209139 0,20 L0,0 L0,0 Z" id="base" fill="#F7B500"></path>
                        <path d="M17.6470651,8.22038673 C17.08393,8.22038673 16.6274636,8.68862966 16.6274636,9.26629327 C16.6274636,9.54920693 16.7380537,9.80494629 16.9159571,9.99325635 L14.822785,12.0748248 L12.6513533,8.54222416 C12.9957344,8.31953384 13.2262527,7.92864649 13.2262527,7.48014037 C13.2262527,6.78544497 12.6772517,6.22222222 12,6.22222222 C11.3227765,6.22222222 10.7737755,6.78544497 10.7737755,7.48014037 C10.7737755,7.9277783 11.0033911,8.3182605 11.3467565,8.54124021 L9.17619942,12.0747959 L7.08387359,9.99340104 C7.26191806,9.80514886 7.37253641,9.54929375 7.37253641,9.26629327 C7.37253641,8.68862966 6.91604178,8.22038673 6.35293487,8.22038673 C5.78982796,8.22038673 5.33333333,8.68862966 5.33333333,9.26629327 C5.33333333,9.84389901 5.78982796,10.3121419 6.35293487,10.3121419 C6.41488791,10.3121419 6.47486614,10.3042704 6.53380052,10.293418 L7.50061784,15.1111111 L16.4993822,15.1111111 L17.4661995,10.293418 C17.5251057,10.3043572 17.5851121,10.3121419 17.6470933,10.3121419 C18.2102002,10.3121419 18.6666667,9.84389901 18.6666667,9.26629327 C18.6666667,8.68862966 18.210172,8.22038673 17.6470651,8.22038673 Z" id="Path" fill="#FEFEFE" fill-rule="nonzero"></path>
                        <polygon id="Path" fill="#FEFEFE" fill-rule="nonzero" points="16.3621559 16 7.63784411 16 7.11111111 17.7777778 16.8888889 17.7777778"></polygon>
                    </g>
                </g>
            </g>
        </g>
    </g>
</svg>