<?xml version="1.0" encoding="UTF-8"?>
<svg width="12px" height="12px" viewBox="0 0 12 12" version="1.1" xmlns="http://www.w3.org/2000/svg" xmlns:xlink="http://www.w3.org/1999/xlink">
    <title>icon_winrate</title>
    <g id="Components" stroke="none" stroke-width="1" fill="none" fill-rule="evenodd">
        <g id="card/room/vertical/2-line-+-crown" transform="translate(0.000000, -176.000000)" fill="#8E8E93" fill-rule="nonzero">
            <g id="body" transform="translate(0.000000, 175.000000)">
                <path d="M12,2.90178571 C12,4.27679259 11.8035734,5.36606741 11.4107143,6.16964286 C11.0178552,6.9732183 10.4553608,7.64285446 9.72321429,8.17857143 C9.09821116,8.62500223 8.41071804,8.93749911 7.66071429,9.11607143 C7.24999795,9.544645 6.83928777,9.82142795 6.42857143,9.94642857 L6.42857143,10.8303571 C6.42857143,10.8660716 6.43303567,10.9151783 6.44196429,10.9776786 C6.4508929,11.0401789 6.50446379,11.1428564 6.60267857,11.2857143 C6.70089335,11.4285721 6.83035634,11.5580351 6.99107143,11.6741071 C7.15178652,11.7901792 7.41517674,11.8973209 7.78125,11.9955357 C8.14732326,12.0937505 8.58035464,12.1428571 9.08035714,12.1428571 L9.42857143,12.1428571 L9.42857143,13 L2.57142857,13 L2.57142857,12.1428571 L2.91964286,12.1428571 C4.54465098,12.1428571 5.42857071,11.732147 5.57142857,10.9107143 L5.57142857,9.94642857 C5.16071223,9.82142795 4.75000205,9.544645 4.33928571,9.11607143 C3.5535675,8.91964187 2.86607437,8.607145 2.27678571,8.17857143 C1.5446392,7.64285446 0.982144821,6.9732183 0.589285714,6.16964286 C0.232141071,5.41963911 0.0357144643,4.55357634 0,3.57142857 L0,2.71428571 L2.14285714,2.71428571 L2.14285714,1 L9.83035714,1 C9.86607161,1.51785973 9.86607161,2.08928259 9.83035714,2.71428571 L12,2.71428571 L12,2.90178571 Z M1.59375,5.0621118 C2.13541938,5.93996298 2.93749469,6.58591925 4,7 C3.43749719,6.18840174 3,5.0704005 2.6875,3.64596273 C2.66666656,3.51345689 2.63541688,3.29813814 2.59375,3 L1,3 C1.04166687,3.7784718 1.23958156,4.46583553 1.59375,5.0621118 Z M10.4123711,5.0621118 C10.7628884,4.46583553 10.9587627,3.7784718 11,3 L9.42268041,3 C9.40206175,3.08281615 9.37628881,3.19461627 9.34536082,3.33540373 C9.31443284,3.47619118 9.29896907,3.57970981 9.29896907,3.64596273 C8.98968918,5.0704005 8.55670381,6.18840174 8,7 C9.09278897,6.56935602 9.89690464,5.92339975 10.4123711,5.0621118 Z" id="icon_winrate"></path>
            </g>
        </g>
    </g>
</svg>