<?xml version="1.0" encoding="UTF-8"?>
<svg width="17px" height="11px" viewBox="0 0 17 11" version="1.1" xmlns="http://www.w3.org/2000/svg" xmlns:xlink="http://www.w3.org/1999/xlink">
    <title>icon_mem</title>
    <g id="Components" stroke="none" stroke-width="1" fill="none" fill-rule="evenodd">
        <g id="card/room/vertical/2-line-+-crown" transform="translate(-87.000000, -198.000000)" fill="#8E8E93" fill-rule="nonzero">
            <g id="body" transform="translate(0.000000, 175.000000)">
                <path d="M98.7048193,29 C99.3554217,29 100.078309,29.1066656 100.873494,29.32 C101.753016,29.5733346 102.469877,29.899998 103.024096,30.3 C103.674702,30.7800024 104,31.319997 104,31.92 L104,34 L99.4819277,34 L99.4819277,31.92 C99.4819277,30.786661 98.9879567,29.8266706 98,29.04 C98.1686755,29.0133332 98.403613,29 98.7048193,29 Z M92.5188356,29 C93.1969212,29 93.9440598,29.1066656 94.760274,29.32 C95.6769452,29.5733346 96.4178082,29.899998 96.9828767,30.3 C97.6609623,30.7800024 98,31.319997 98,31.92 L98,34 L87,34 L87,31.92 C87,31.319997 87.3390377,30.7800024 88.0171233,30.3 C88.5947517,29.899998 89.3418904,29.5733346 90.2585616,29.32 C91.0873329,29.1066656 91.84075,29 92.5188356,29 Z M92.5201613,28 C92.0766107,28 91.6599482,27.8866678 91.2701613,27.66 C90.8803744,27.4333322 90.5712377,27.1266686 90.3427419,26.74 C90.1142462,26.3533314 90,25.9400022 90,25.5 C90,25.0599978 90.1142462,24.6466686 90.3427419,24.26 C90.5712377,23.8733314 90.8803744,23.5666678 91.2701613,23.34 C91.6599482,23.1133322 92.0766107,23 92.5201613,23 C92.9637119,23 93.3770142,23.1133322 93.7600806,23.34 C94.1431471,23.5666678 94.4455634,23.8699981 94.6673387,24.25 C94.889114,24.6300019 95,25.0466644 95,25.5 C95,25.9533356 94.889114,26.3699981 94.6673387,26.75 C94.4455634,27.1300019 94.1431471,27.4333322 93.7600806,27.66 C93.3770142,27.8866678 92.9637119,28 92.5201613,28 Z M98.5,28 C98.0599978,28 97.6466686,27.8866678 97.26,27.66 C96.8733314,27.4333322 96.5666678,27.1266686 96.34,26.74 C96.1133322,26.3533314 96,25.9400022 96,25.5 C96,25.0599978 96.1133322,24.6466686 96.34,24.26 C96.5666678,23.8733314 96.8733314,23.5666678 97.26,23.34 C97.6466686,23.1133322 98.0599978,23 98.5,23 C98.9400022,23 99.3533314,23.1133322 99.74,23.34 C100.126669,23.5666678 100.433332,23.8733314 100.66,24.26 C100.886668,24.6466686 101,25.0599978 101,25.5 C101,25.9400022 100.886668,26.3533314 100.66,26.74 C100.433332,27.1266686 100.126669,27.4333322 99.74,27.66 C99.3533314,27.8866678 98.9400022,28 98.5,28 Z" id="icon_mem"></path>
            </g>
        </g>
    </g>
</svg>