<?xml version="1.0" encoding="UTF-8"?>
<svg width="15px" height="15px" viewBox="0 0 15 15" version="1.1" xmlns="http://www.w3.org/2000/svg" xmlns:xlink="http://www.w3.org/1999/xlink">
    <title>close</title>
    <g id="Components" stroke="none" stroke-width="1" fill="none" fill-rule="evenodd">
        <g id="popup/1-block/warning" transform="translate(-283.000000, -16.000000)" fill="#3F27B1" fill-rule="nonzero">
            <path d="M297.395264,16 C297.536127,16 297.65513,16.0488754 297.752277,16.1466276 C297.849424,16.2443798 297.897996,16.3641244 297.897996,16.5058651 C297.897996,16.6476058 297.849424,16.7673504 297.752277,16.8651026 L297.752277,16.8651026 L291.1949,23.4486804 L297.854281,30.1495601 C297.951427,30.2473123 298,30.3646132 298,30.5014663 C298,30.6383194 297.951427,30.7556202 297.854281,30.8533724 C297.805707,30.9022485 297.749849,30.9389051 297.686703,30.9633431 C297.623558,30.9877812 297.557985,31 297.489982,31 C297.431694,31 297.370978,30.9877812 297.307832,30.9633431 C297.244687,30.9389051 297.188828,30.9022485 297.140255,30.8533724 L297.140255,30.8533724 L290.5,24.157 L283.859745,30.8533724 C283.811172,30.9022485 283.755313,30.9389051 283.692168,30.9633431 C283.629022,30.9877812 283.568306,31 283.510018,31 C283.442015,31 283.376442,30.9877812 283.313297,30.9633431 C283.250151,30.9389051 283.194293,30.9022485 283.145719,30.8533724 C283.048573,30.7556202 283,30.6383194 283,30.5014663 C283,30.3646132 283.048573,30.2473123 283.145719,30.1495601 L289.8051,23.4486804 L283.247723,16.8651026 C283.150576,16.7673504 283.102004,16.6476058 283.102004,16.5058651 C283.102004,16.3641244 283.150576,16.2443798 283.247723,16.1466276 C283.34487,16.0488754 283.463873,16 283.604736,16 C283.745599,16 283.864602,16.0488754 283.961749,16.1466276 L290.5,22.739 L297.038251,16.1466276 C297.115969,16.0684258 297.207674,16.0215052 297.31337,16.0058651 Z" id="close"></path>
        </g>
    </g>
</svg>