<?xml version="1.0" encoding="UTF-8"?>
<svg width="19px" height="19px" viewBox="0 0 19 19" version="1.1" xmlns="http://www.w3.org/2000/svg" xmlns:xlink="http://www.w3.org/1999/xlink">
    <title>ic_search</title>
    <g id="Components" stroke="none" stroke-width="1" fill="none" fill-rule="evenodd">
        <g id="card/cell/option/element/right/search" transform="translate(-166.000000, -12.000000)" fill="#9676F9" stroke="#9676F9">
            <path d="M179.033798,23.6128342 C179.868106,22.4748761 180.315042,21.0991119 180.30881,19.6880718 C180.292891,16.0047887 177.313895,13.0213414 173.630784,13.0000677 C171.868208,12.9920927 170.175649,13.6893985 168.930162,14.936645 C167.684676,16.1838915 166.989721,17.8774721 167.000115,19.6401051 C167.016034,23.3237235 169.995302,26.3074426 173.678749,26.3287164 C175.095481,26.3348569 176.476217,25.8826869 177.614892,25.0396894 L182.2699,29.6888085 C182.521319,29.9525806 182.89595,30.0593493 183.248641,29.9677468 C183.601333,29.8761443 183.876667,29.600564 183.967964,29.2477804 C184.059261,28.8949967 183.952176,28.5204423 183.688199,28.2692394 L179.033798,23.6128342 Z M173.520073,24.9999529 C170.475818,24.9824656 168.013451,22.5202326 168.000087,19.4802689 C167.99187,18.0257368 168.566308,16.6282866 169.595526,15.5989962 C170.624745,14.5697059 172.023321,13.9940051 173.479927,14.0000471 C176.524182,14.0175344 178.986549,16.4797674 178.999913,19.5197311 C179.00813,20.9742632 178.433692,22.3717134 177.404474,23.4010038 C176.375255,24.4302941 174.976679,25.0059949 173.520073,24.9999529 Z" id="ic_search"></path>
        </g>
    </g>
</svg>