<?xml version="1.0" encoding="UTF-8"?>
<svg width="17px" height="17px" viewBox="0 0 17 17" version="1.1" xmlns="http://www.w3.org/2000/svg" xmlns:xlink="http://www.w3.org/1999/xlink">
    <title>icon_Search</title>
    <g id="Components" stroke="none" stroke-width="1" fill="none" fill-rule="evenodd">
        <g id="top-navi/element/search-bar" transform="translate(-16.000000, -10.000000)" fill="#3F27B1">
            <path d="M32.6881988,25.2692394 L28.0337983,20.6128342 C28.8681062,19.4748761 29.3150417,18.0991119 29.3088102,16.6880718 C29.2928911,13.0047887 26.3138947,10.0213414 22.6307838,10.0000677 C20.8682076,9.99209271 19.175649,10.6893985 17.9301623,11.936645 C16.6846756,13.1838915 15.9897211,14.8774721 16.0001149,16.6401051 C16.016034,20.3237235 18.9953022,23.3074426 22.6787485,23.3287164 C24.0954812,23.3348569 25.4762174,22.8826869 26.6148923,22.0396894 L26.6197495,22.0360463 L31.2698999,26.6888085 C31.5213187,26.9525806 31.8959499,27.0593493 32.2486414,26.9677468 C32.6013329,26.8761443 32.8766666,26.600564 32.9679636,26.2477804 C33.0592606,25.8949967 32.9521755,25.5204423 32.6881988,25.2692394 L32.6881988,25.2692394 Z M22.5200727,21.9999529 C19.4758182,21.9824656 17.0134506,19.5202326 17.0000869,16.4802689 C16.9918704,15.0257368 17.5663075,13.6282866 18.5955262,12.5989962 C19.6247449,11.5697059 21.0233215,10.9940051 22.4799273,11.0000471 C25.5241818,11.0175344 27.9865494,13.4797674 27.9999131,16.5197311 C28.0081296,17.9742632 27.4336925,19.3717134 26.4044738,20.4010038 C25.3752551,21.4302941 23.9766785,22.0059949 22.5200727,21.9999529 Z" id="icon_Search"></path>
        </g>
    </g>
</svg>