<?xml version="1.0" encoding="UTF-8"?>
<svg width="18px" height="19px" viewBox="0 0 18 19" version="1.1" xmlns="http://www.w3.org/2000/svg" xmlns:xlink="http://www.w3.org/1999/xlink">
    <title>icon_create</title>
    <g id="Components" stroke="none" stroke-width="1" fill="none" fill-rule="evenodd">
        <g id="top-navi/element/right/create" transform="translate(-136.000000, -14.000000)" fill="#3F27B1">
            <path d="M152,22.0096154 L152,19.9903846 L148.009615,19.9903846 L148.009615,16 L145.990385,16 L145.990385,19.9903846 L142,19.9903846 L142,22.0096154 L145.990385,22.0096154 L145.990385,26 L148.009615,26 L148.009615,22.0096154 L152,22.0096154 Z M152.153153,14 C152.663666,14 153.099097,14.1801784 153.459459,14.5405405 C153.819822,14.9009027 154,15.3363338 154,15.8468468 L154,27.1081081 C154,27.6186212 153.819822,28.0615597 153.459459,28.4369369 C153.099097,28.8123142 152.663666,29 152.153153,29 L140.891892,29 C140.381379,29 139.93844,28.8123142 139.563063,28.4369369 C139.187686,28.0615597 139,27.6186212 139,27.1081081 L139,15.8468468 C139,15.3363338 139.187686,14.9009027 139.563063,14.5405405 C139.93844,14.1801784 140.381379,14 140.891892,14 L152.153153,14 Z M137.846847,18 L137.846847,31.1531532 L151,31.1531532 L151,33 L137.846847,33 C137.336334,33 136.900903,32.8198216 136.540541,32.4594595 C136.180178,32.0990973 136,31.6636662 136,31.1531532 L136,18 L137.846847,18 Z" id="icon_create"></path>
        </g>
    </g>
</svg>