<?xml version="1.0" encoding="UTF-8"?>
<svg width="143px" height="156px" viewBox="0 0 143 156" version="1.1" xmlns="http://www.w3.org/2000/svg" xmlns:xlink="http://www.w3.org/1999/xlink">
    <title>logo</title>
    <defs>
        <polygon id="path-1" points="0.692922449 0.179020619 114.85231 0.179020619 114.85231 114.482619 0.692922449 114.482619"></polygon>
        <polygon id="path-3" points="0 0.2343 21.8882632 0.2343 21.8882632 32.96205 0 32.96205"></polygon>
        <polygon id="path-5" points="0.960473684 0.0658333333 21.9334211 0.0658333333 21.9334211 24 0.960473684 24"></polygon>
    </defs>
    <g id="UI-Design" stroke="none" stroke-width="1" fill="none" fill-rule="evenodd">
        <g id="login" transform="translate(-116.000000, -158.000000)">
            <g id="logo" transform="translate(116.172932, 158.000000)">
                <path d="M41.0342032,42.3346848 C41.0342032,42.3346848 41.8554301,40.6608684 40.2129763,38.5585927 C40.2129763,38.5585927 37.5298397,40.8656814 35.8862309,37.2932252 C35.2105379,35.8418781 34.8270677,35.1532828 34.6087668,34.8378237 L34.2980636,34.7260005 C34.2980636,34.7260005 34.2795831,34.3716976 34.6087668,34.8378237 L35.5582022,35.1532828 C35.137771,34.8743134 34.5175194,34.0374052 34.5902864,31.4713576 C34.5902864,31.4713576 35.6852556,32.9580173 39.1722935,33.6101229 C42.6593315,34.2610515 41.363387,37.5357049 41.363387,37.5357049 C41.363387,37.5357049 45.9453942,41.3682971 40.8159024,47.8987706 C35.6852556,54.428067 28.0181611,53.813628 30.190774,60.2134449 C30.190774,60.2134449 33.4040697,64.2331938 37.0551221,60.2134449 C38.7888233,58.3159822 41.1069701,56.8658122 43.8270677,55.7864243 L43.8270677,31.9162961 C43.8270677,30.8557416 42.8048654,30 41.5458818,30 L28.1094085,30 C26.8492699,30 25.8270677,30.8557416 25.8270677,31.9162961 L25.8270677,54.1679309 C29.0034024,50.2600052 37.6938541,49.2747842 41.0342032,42.3346848" id="Fill-1" fill="#FFFFFF"></path>
                <path d="M92.8270677,26.6061191 L92.8270677,26.230655 C91.639696,25.2729838 89.5040441,22.7742462 92.8270677,19.1693153 L92.8270677,16.9343532 C92.8270677,15.8638051 91.8048654,15 90.5447268,15 L77.1082535,15 C75.8492699,15 74.8270677,15.8638051 74.8270677,16.9343532 L74.8270677,31 C75.0823295,30.8122679 75.3375913,30.625724 75.5940081,30.437992 C82.3116673,25.8920244 90.5089209,26.3625427 92.8270677,26.6061191" id="Fill-3" fill="#FFFFFF"></path>
                <path d="M64.0217568,48.6089749 C65.485783,46.3910251 66.1987002,42.7626259 67.8270677,39.0604931 L67.8270677,27.3119004 C67.8270677,26.0346468 66.6199694,25 65.1200658,25 L52.5340695,25 C51.034166,25 49.8270677,26.0346468 49.8270677,27.3119004 L49.8270677,55 C51.1626299,54.7359867 52.5525869,54.5302466 53.9437011,54.3792119 C60.8934857,53.6085785 61.3506323,52.6690716 64.0217568,48.6089749" id="Fill-5" fill="#FFFFFF"></path>
                <g id="Group-9" transform="translate(13.827068, 0.000000)">
                    <mask id="mask-2" fill="white">
                        <use xlink:href="#path-1"></use>
                    </mask>
                    <g id="Clip-8"></g>
                    <path d="M108.977739,43.3521546 C107.201045,44.2887526 105.535616,45.3569485 103.963698,46.5188041 L103.963698,12.3768454 C103.963698,11.3098351 102.916147,10.4467423 101.625943,10.4467423 L87.8562694,10.4467423 C86.5648816,10.4467423 85.5173306,11.3098351 85.5173306,12.3768454 L85.5173306,24.1459691 C87.1448816,24.9130309 88.9227592,25.7381856 90.1194531,26.3938041 L89.6152082,25.8128763 C89.6152082,25.8128763 95.5264735,26.1875155 99.1556163,25.8128763 C102.785943,25.4382371 101.437739,22.2715876 101.437739,22.2715876 C101.437739,22.2715876 104.114024,25.6255567 101.251902,27.8176701 C99.1556163,29.4300412 95.9750857,30.0097835 94.4232898,30.2160722 C95.3015755,31.0779794 96.1621061,31.8663814 96.7799837,32.220866 C98.2572082,33.0649897 102.486473,35.8190619 102.486473,35.8190619 C102.486473,35.8190619 103.757739,41.5346804 98.6880653,42.5839072 C98.6880653,42.5839072 96.7799837,39.192 90.8864735,41.3094227 C86.5648816,42.8459175 85.6297796,42.9395773 85.5173306,44.1761237 L85.5173306,44.8886495 C85.5362694,45.2455052 85.5741469,45.6568969 85.6108408,46.163134 C85.704351,47.7743196 86.1529633,50.2474124 86.0783918,53.1532371 C87.8183918,53.2077732 90.1005143,52.833134 92.1968,51.1294742 C92.1968,51.1294742 98.2015755,58.9613299 98.9685959,63.270866 C98.9685959,63.270866 103.1588,65.8565876 101.737208,68.4233402 C101.737208,68.4233402 102.504229,75.2071546 101.008065,76.1639072 L95.5631673,72.2467938 C95.5631673,72.2467938 96.5183918,68.8928247 96.611902,68.7991649 C96.2745551,68.7422577 94.8340245,68.3865876 95.3394531,65.8388041 C95.3394531,65.8388041 95.2459429,63.9264845 91.0368,59.5232887 C91.0368,59.5232887 88.2670041,60.4788557 85.9848816,62.7646289 C84.6011673,64.1517423 83.1594531,65.6882371 81.4206367,66.1755052 C81.6822286,68.4624639 82.3936163,75.770299 81.1590449,79.1420515 C81.1590449,79.1420515 83.4778612,83.395866 80.9897796,84.8956082 C80.9897796,84.8956082 78.3336163,91.0593711 76.5746776,91.1352474 L73.861698,85.1196804 C73.861698,85.1196804 76.3130857,82.7212784 76.4432898,82.7023093 C76.181698,82.4972062 75.1341469,81.484732 76.8185143,79.5546289 C76.8185143,79.5546289 77.6790449,77.8877216 76.2562694,72.0772577 C76.2562694,72.0772577 75.9757388,72.0227216 75.5081878,71.9835979 C73.6557388,73.5402474 71.2990449,75.2450928 68.5304327,76.7626186 C61.1395755,80.8101443 55.022351,76.7626186 55.022351,76.7626186 C55.022351,76.7626186 55.2283102,80.8101443 51.2239429,85.2512784 C47.2207592,89.6924124 42.9926776,93.7031856 42.9926776,93.7031856 C42.9926776,93.7031856 41.5142694,94.9764845 41.7202286,98.7809691 C41.9273714,102.584268 43.4045959,102.584268 43.4045959,102.584268 C43.4045959,102.584268 46.3602286,103.014629 47.2030041,105.544629 C47.2030041,105.544629 64.302351,107.455763 68.5304327,108.506175 L12.7971673,108.506175 L24.1912082,106.182464 L24.1912082,104.065041 C24.1912082,104.065041 22.5068408,104.495402 23.1424735,101.310969 C23.7792898,98.143134 20.3928,93.9094742 20.3928,93.9094742 C20.3928,93.9094742 23.3496163,90.7416392 24.1912082,85.6626701 C25.0328,80.5848866 24.1912082,79.4609691 22.7128,76.7436495 C21.2355755,74.0263299 19.120351,71.9290619 19.3263102,67.4867423 C19.3263102,67.4867423 13.9382286,67.7866907 11.3566367,62.8215361 L11.3566367,63.8328247 C11.4501469,63.7960722 11.5625959,63.758134 11.6561061,63.7024124 L11.3566367,64.1149897 L11.3566367,63.8328247 C9.69239184,64.5453505 8.08259592,65.332567 6.52961633,66.1944742 L6.52961633,6.02576289 L108.977739,6.02576289 L108.977739,43.3521546 Z M109.183698,0.178546392 L6.32365714,0.178546392 C3.21888163,0.178546392 0.692922449,2.70854639 0.692922449,5.81947423 L0.692922449,69.8483918 L0.692922449,108.842876 L0.692922449,109.125041 L0.692922449,109.198546 C0.692922449,109.274423 0.692922449,109.330144 0.711861224,109.404835 L0.711861224,109.479526 C0.711861224,109.555402 0.7308,109.630093 0.7308,109.685814 C0.7308,109.704784 0.7308,109.742722 0.748555102,109.761691 C0.767493878,109.836381 0.767493878,109.892103 0.786432653,109.966794 C0.786432653,109.985763 0.786432653,110.004732 0.805371429,110.023701 C0.824310204,110.098392 0.84324898,110.173082 0.861004082,110.248959 C0.861004082,110.266742 0.861004082,110.285711 0.879942857,110.285711 C0.898881633,110.361588 0.917820408,110.436278 0.936759184,110.509784 C0.936759184,110.528753 0.936759184,110.528753 0.954514286,110.548907 C0.973453061,110.622412 1.01133061,110.698289 1.03026939,110.772979 L1.03026939,110.791948 C1.06696327,110.866639 1.08590204,110.942515 1.12259592,111.016021 L1.12259592,111.03499 C2.00324898,113.078907 4.00365714,114.482619 6.32365714,114.482619 L109.202637,114.482619 C111.242106,114.482619 113.0188,113.396639 114.010718,111.785454 C114.047412,111.709577 114.104229,111.634887 114.140922,111.560196 L114.140922,111.541227 C114.1788,111.466536 114.216678,111.391845 114.253371,111.315969 L114.253371,111.298186 C114.291249,111.222309 114.329127,111.148804 114.36582,111.072928 C114.36582,111.072928 114.36582,111.053959 114.384759,111.053959 C114.422637,110.979268 114.440392,110.904577 114.478269,110.828701 C114.478269,110.809732 114.497208,110.809732 114.497208,110.791948 C114.516147,110.716072 114.552841,110.642567 114.57178,110.566691 C114.57178,110.548907 114.590718,110.528753 114.590718,110.528753 C114.608473,110.455247 114.627412,110.379371 114.646351,110.322464 C114.646351,110.30468 114.66529,110.285711 114.66529,110.266742 C114.684229,110.192052 114.701984,110.13633 114.722106,110.061639 C114.722106,110.04267 114.739861,110.023701 114.739861,109.985763 C114.7588,109.930041 114.7588,109.855351 114.777739,109.798443 C114.777739,109.779474 114.796678,109.742722 114.796678,109.723753 C114.814433,109.668031 114.814433,109.592155 114.814433,109.536433 C114.814433,109.498495 114.814433,109.479526 114.833371,109.442773 C114.833371,109.368082 114.85231,109.311175 114.85231,109.236485 L114.85231,109.142825 L114.85231,108.861845 L114.85231,41.0094742 L114.85231,5.81947423 C114.814433,2.70854639 112.307412,0.178546392 109.183698,0.178546392 L109.183698,0.178546392 Z" id="Fill-7" fill="#FFFFFF" mask="url(#mask-2)"></path>
                </g>
                <path d="M54.3726471,73 C54.3726471,73 52.7943191,87.1976584 40.5896008,95.9696749 C40.5896008,95.9696749 38.5470586,102.333139 41.1478329,102.977747 C43.7474321,103.620028 44.2116462,105 44.2116462,105 L53.2397296,105 L53.1468867,102.42506 C53.1468867,102.42506 51.6602263,103.436186 51.93993,99.4836012 C52.2184585,95.5112355 49.15347,90.7290379 49.15347,90.7290379 C49.15347,90.7290379 53.351376,86.4809105 54.3726471,79.9336048 C55.3950934,73.3862992 54.3726471,73 54.3726471,73" id="Fill-10" fill="#FFFFFF"></path>
                <g id="Group-14" transform="translate(0.827068, 123.000000)">
                    <mask id="mask-4" fill="white">
                        <use xlink:href="#path-3"></use>
                    </mask>
                    <g id="Clip-13"></g>
                    <path d="M14.7139474,26.1451929 C15.5372105,24.7662643 15.9586842,23.0891571 15.9586842,21.1527643 C15.9586842,19.2517286 15.5372105,17.6311929 14.7139474,16.2534429 C13.8721579,14.8933714 12.6100526,14.2039071 10.9264737,14.2039071 C9.26026316,14.2039071 7.99815789,14.8933714 7.15636842,16.2723 C6.31457895,17.6512286 5.89310526,19.2906214 5.89310526,21.1904786 C5.89310526,23.1091929 6.31457895,24.7662643 7.15636842,26.1451929 C7.99815789,27.5229429 9.26026316,28.2124071 10.9264737,28.2124071 C12.6274211,28.2124071 13.8906842,27.5229429 14.7139474,26.1451929 M8.60142105,31.6208357 C7.52226316,30.7274786 6.73489474,29.7586929 6.22310526,28.6968 L5.87457895,28.6968 L5.87457895,32.6273357 L-0.000578947368,32.6273357 L-0.000578947368,0.2343 L5.89310526,0.2343 L5.89310526,13.3848 L6.22310526,13.3848 C6.68047368,12.4171929 7.42963158,11.4849429 8.50994737,10.6092643 C9.59026316,9.73358571 11.0723684,9.28690714 12.9933158,9.28690714 C15.8486842,9.28690714 18.0440526,10.3664786 19.5817368,12.5279786 C21.1194211,14.6883 21.8882632,17.5758 21.8882632,21.1904786 C21.8882632,24.7297286 21.1194211,27.5795143 19.5817368,29.7209786 C18.0440526,31.8824786 15.8672105,32.96205 13.0303684,32.96205 C11.1453158,32.9443714 9.66321053,32.5153714 8.60142105,31.6208357" id="Fill-12" fill="#FFFFFF" mask="url(#mask-4)"></path>
                </g>
                <path d="M32.221091,154.572519 C30.4547256,153.61063 29.1065202,152.388645 28.1944988,150.869071 C27.2836791,149.350669 26.8270677,147.758456 26.8270677,146.073686 L26.8270677,145.813589 L33.5128208,145.813589 L33.5128208,146.073686 C33.5128208,146.795395 33.702675,147.518277 34.0631577,148.239986 C34.4236405,148.961696 34.9944048,149.573274 35.7730475,150.054805 C36.5516902,150.536335 37.5009614,150.777686 38.6593126,150.777686 C40.1024451,150.777686 41.2607963,150.425032 42.1535919,149.703323 C43.0463875,148.981613 43.5029989,148.036127 43.5029989,146.832887 C43.5029989,145.796015 43.1220888,144.980577 42.3818976,144.37017 C41.6405048,143.758591 40.7104593,143.350872 39.6278095,143.147013 L35.8859988,142.370238 C33.9490049,142 32.0877124,141.184572 30.3033228,139.943841 C28.5177317,138.703109 27.6249361,136.666857 27.6249361,133.832741 C27.6249361,131.999177 28.080346,130.42571 28.9923673,129.092421 C29.9043886,127.759133 31.1576669,126.741007 32.7714279,126.055617 C34.3863906,125.352654 36.2092316,125 38.2603784,125 C40.5963065,125 42.6294291,125.44521 44.2996658,126.333288 C45.9903298,127.221366 47.2628338,128.370712 48.1171779,129.759066 C48.971522,131.166165 49.4089077,132.648247 49.4089077,134.221715 L49.4089077,134.388083 L42.7231546,134.388083 L42.7231546,134.259206 C42.7231546,133.221163 42.3434461,132.259274 41.6032549,131.370024 C40.8618621,130.463201 39.666261,130.017991 38.0140485,130.017991 C36.6646415,130.017991 35.6012174,130.370644 34.8418004,131.073608 C34.0823835,131.777743 33.702675,132.666993 33.702675,133.75893 C33.702675,134.795802 34.0823835,135.610068 34.8610262,136.202901 C35.6396689,136.795734 36.5889401,137.221027 37.7484929,137.443632 L41.4326264,138.221579 C43.6916515,138.703109 45.6478712,139.609933 47.3193095,140.925647 C48.9907477,142.240189 49.8270677,144.16631 49.8270677,146.702838 C49.8270677,148.536403 49.3512305,150.147361 48.3839351,151.572035 C47.4154382,152.981478 46.0660312,154.072243 44.357343,154.85019 C42.6474532,155.628137 40.6912336,155.999536 38.5271356,155.999536 C36.1143045,156.01711 34.0066821,155.53558 32.221091,154.572519" id="Fill-15" fill="#FFFFFF"></path>
                <path d="M61.6954574,136.932652 L61.6954574,146.952072 C61.6954574,147.945974 61.7513521,148.682371 61.8453028,149.161262 C61.9404428,149.640152 62.2222948,150.026993 62.6920482,150.303142 C63.1618017,150.579291 63.9134072,150.727269 64.9468647,150.727269 C65.5486248,150.727269 66.1884409,150.67134 66.8270677,150.560648 L66.8270677,154.64928 C66.5071596,154.705208 65.9434555,154.77745 65.1157381,154.870665 C64.2892099,154.962714 63.4805205,155 62.7110762,155 C60.5858879,155 59.0267822,154.6854 57.9921355,154.078339 C56.9586779,153.470113 56.3188618,152.697596 56.0560378,151.775935 C55.7932137,150.855439 55.6623963,149.658795 55.6623963,148.222123 L55.6623963,136.932652 L51.8270677,136.932652 L51.8270677,132.329009 L55.699263,132.329009 L55.699263,125 L61.6954574,125 L61.6954574,132.329009 L66.8270677,132.329009 L66.8270677,136.932652 L61.6954574,136.932652 Z" id="Fill-17" fill="#FFFFFF"></path>
                <path d="M85.6067562,149.05978 C86.4716707,147.696864 86.8856876,145.995313 86.8856876,143.952735 C86.8856876,141.910156 86.4526355,140.226554 85.6067562,138.903126 C84.7418416,137.578501 83.4819455,136.917984 81.7901869,136.917984 C80.0972386,136.917984 78.8373424,137.578501 78.0093086,138.903126 C77.1634293,140.226554 76.7506022,141.910156 76.7506022,143.952735 C76.7506022,145.995313 77.1824646,147.696864 78.0283439,149.05978 C78.8742232,150.421499 80.1341194,151.102358 81.7901869,151.102358 C83.4819455,151.082016 84.7608769,150.402353 85.6067562,149.05978 M75.7345952,154.354689 C74.0987527,153.258613 72.8769271,151.801167 72.0488933,150.005086 C71.2398948,148.188662 70.8270677,146.20352 70.8270677,144.048462 C70.8270677,141.892207 71.2220493,139.905868 72.0298581,138.0703 C72.8198213,136.25627 74.0606822,134.779678 75.71556,133.664456 C77.3704378,132.548038 79.4012619,132 81.8080324,132 C84.2148029,132 86.245627,132.548038 87.9005048,133.645311 C89.5553826,134.742584 90.7962435,136.198833 91.605242,137.996111 C92.4142405,139.811338 92.8270677,141.797677 92.8270677,143.952735 C92.8270677,146.108989 92.4142405,148.113277 91.605242,149.9297 C90.7962435,151.744927 89.5553826,153.220322 87.9005048,154.335544 C86.245627,155.451962 84.2148029,156 81.8080324,156 C79.4012619,155.980855 77.3704378,155.451962 75.7345952,154.354689" id="Fill-19" fill="#FFFFFF"></path>
                <g id="Group-23" transform="translate(95.827068, 132.000000)">
                    <mask id="mask-6" fill="white">
                        <use xlink:href="#path-5"></use>
                    </mask>
                    <g id="Clip-22"></g>
                    <path d="M5.71826316,22.3063095 C4.10763158,21.1777381 2.91847368,19.6908333 2.13110526,17.8670238 C1.36226316,16.0408333 0.960473684,14.0836905 0.960473684,11.9955952 C0.960473684,9.92654762 1.34489474,7.98845238 2.13110526,6.18130952 C2.89994737,4.37416667 4.10763158,2.8872619 5.71826316,1.75869048 C7.32889474,0.630119048 9.32394737,0.0658333333 11.6848947,0.0658333333 C14.6861579,0.0658333333 17.0471053,0.950357143 18.7851053,2.70035714 C20.5242632,4.45035714 21.5675263,6.67059524 21.9334211,9.34202381 L16.2226842,9.34202381 C16.0212105,8.04440476 15.5464737,6.99083333 14.7961579,6.18130952 C14.0446842,5.39083333 13.0211053,4.97654762 11.7207895,4.97654762 C10.0013158,4.97654762 8.73805263,5.65511905 7.93331579,7.0277381 C7.12742105,8.40154762 6.72563158,10.0384524 6.72563158,11.9955952 C6.72563158,13.9896429 7.12742105,15.6836905 7.93331579,17.0372619 C8.73805263,18.4122619 10.0013158,19.0896429 11.7207895,19.0896429 C12.9840526,19.0896429 14.0087895,18.6944048 14.7776316,17.884881 C15.5464737,17.0944048 16.0212105,16.0408333 16.2226842,14.7241667 L21.9334211,14.7241667 C21.5675263,17.3955952 20.5057368,19.6158333 18.7851053,21.3658333 C17.0471053,23.1158333 14.6861579,24.0003571 11.6848947,24.0003571 C9.32394737,24.0003571 7.32889474,23.434881 5.71826316,22.3063095" id="Fill-21" fill="#FFFFFF" mask="url(#mask-6)"></path>
                </g>
                <polygon id="Fill-24" fill="#FFFFFF" points="121.845937 123 127.84747 123 127.84747 140.785625 128.07154 140.785625 134.968173 132.264769 141.602998 132.264769 133.365484 142.645406 141.827068 155 135.173373 155 128.089229 144.060252 127.828601 144.060252 127.828601 155 121.827068 155 121.827068 123"></polygon>
            </g>
        </g>
    </g>
</svg>