<?xml version="1.0" encoding="UTF-8"?>
<svg width="11px" height="20px" viewBox="0 0 11 20" version="1.1" xmlns="http://www.w3.org/2000/svg" xmlns:xlink="http://www.w3.org/1999/xlink">
    <title>back</title>
    <g id="Components" stroke="none" stroke-width="1" fill="none" fill-rule="evenodd">
        <g id="top-navi/element/left/arrow" transform="translate(-16.000000, -13.000000)" fill="#3F27B1" fill-rule="nonzero">
            <path d="M16.6835938,32.9804688 C16.5924475,32.9804688 16.5045577,32.9641929 16.4199219,32.9316406 C16.335286,32.8990884 16.260417,32.8502607 16.1953125,32.7851562 C16.0651035,32.6549473 16,32.4986988 16,32.3164062 C16,32.1341137 16.0651035,31.9778652 16.1953125,31.8476562 L25.1210938,22.921875 L16.3320312,14.1523438 C16.2018223,14.0221348 16.1367188,13.8626312 16.1367188,13.6738281 C16.1367188,13.4850251 16.2018223,13.3255215 16.3320312,13.1953125 C16.4622402,13.0651035 16.6217438,13 16.8105469,13 C16.9993499,13 17.1588535,13.0651035 17.2890625,13.1953125 L26.5273438,22.453125 C26.6575527,22.583334 26.7226562,22.7395824 26.7226562,22.921875 C26.7226562,23.1041676 26.6575527,23.260416 26.5273438,23.390625 L17.1523438,32.7851562 C17.0872393,32.8502607 17.0123702,32.8990884 16.9277344,32.9316406 C16.8430985,32.9641929 16.7617191,32.9804688 16.6835938,32.9804688 Z" id="back" transform="translate(21.361328, 22.990234) scale(-1, 1) translate(-21.361328, -22.990234) "></path>
        </g>
    </g>
</svg>