<?xml version="1.0" encoding="UTF-8"?>
<svg width="14px" height="13px" viewBox="0 0 14 13" version="1.1" xmlns="http://www.w3.org/2000/svg" xmlns:xlink="http://www.w3.org/1999/xlink">
    <title>icon_clock</title>
    <defs>
        <polygon id="path-1" points="0.0002 0 12.0002 0 12.0002 11.7898 0.0002 11.7898"></polygon>
    </defs>
    <g id="Components" stroke="none" stroke-width="1" fill="none" fill-rule="evenodd">
        <g id="card/room/vertical/2-line-+-crown" transform="translate(0.000000, -197.000000)">
            <g id="body" transform="translate(0.000000, 175.000000)">
                <g id="icon_clock" transform="translate(0.000000, 22.000000)">
                    <polygon id="Fill-1" fill="#8E8E93" points="11.1429 7.9996 12.2499 9.2106 10.5709 11.1256 8.6609 9.0356 5.9999 12.9996 8.6609 10.4996 10.5709 12.6876 12.9109 9.9336 13.9999 11.1256 13.9999 7.9996"></polygon>
                    <path d="M8.59,5.9063 L6.422,5.9063 L6.422,3.0933 C6.422,2.9763 6.381,2.8773 6.299,2.7953 C6.217,2.7133 6.117,2.6723 6,2.6723 C5.883,2.6723 5.783,2.7133 5.701,2.7953 C5.619,2.8773 5.578,2.9763 5.578,3.0933 L5.578,5.9063 C5.578,6.1403 5.66,6.3403 5.824,6.5043 C5.988,6.6683 6.188,6.7503 6.422,6.7503 L8.59,6.7503 C8.707,6.7503 8.807,6.7093 8.889,6.6273 C8.971,6.5453 9.012,6.4453 9.012,6.3283 C9.012,6.2113 8.971,6.1113 8.889,6.0293 C8.807,5.9473 8.707,5.9063 8.59,5.9063" id="Fill-2" fill="#8E8E93"></path>
                    <mask id="mask-2" fill="white">
                        <use xlink:href="#path-1"></use>
                    </mask>
                    <g id="Clip-5"></g>
                    <path d="M3.9962,10.7578 C3.3792,10.4918 2.8322,10.1208 2.3552,9.6448 C1.8792,9.1678 1.5122,8.6208 1.2542,8.0038 C0.9802,7.3708 0.8442,6.7028 0.8442,5.9998 C0.8442,5.2968 0.9762,4.6288 1.2422,3.9958 C1.5082,3.3788 1.8792,2.8318 2.3552,2.3558 C2.8322,1.8788 3.3792,1.5118 3.9962,1.2538 C4.6292,0.9808 5.2972,0.8438 6.0002,0.8438 C6.7032,0.8438 7.3712,0.9768 8.0042,1.2418 C8.6212,1.5078 9.1682,1.8788 9.6442,2.3558 C10.1212,2.8318 10.4882,3.3788 10.7462,3.9958 C11.0192,4.6288 11.1562,5.2968 11.1562,5.9998 L12.0002,5.9998 C12.0002,4.9138 11.7322,3.9098 11.1972,2.9878 C10.6622,2.0668 9.9332,1.3398 9.0122,0.8088 C8.0902,0.2698 7.0862,-0.0002 6.0002,-0.0002 C4.9142,-0.0002 3.9102,0.2678 2.9882,0.8028 C2.0662,1.3378 1.3382,2.0668 0.8032,2.9878 C0.2672,3.9098 0.0002,4.9138 0.0002,5.9998 C0.0002,7.0858 0.2672,8.0898 0.8032,9.0118 C1.3382,9.9338 2.0662,10.6618 2.9882,11.1968 C3.4402,11.4598 3.9132,11.6558 4.4042,11.7898 L4.9092,11.0378 C4.5972,10.9708 4.2922,10.8818 3.9962,10.7578" id="Fill-4" fill="#8E8E93" mask="url(#mask-2)"></path>
                </g>
            </g>
        </g>
    </g>
</svg>