<?xml version="1.0" encoding="UTF-8"?>
<svg width="8px" height="15px" viewBox="0 0 8 15" version="1.1" xmlns="http://www.w3.org/2000/svg" xmlns:xlink="http://www.w3.org/1999/xlink">
    <title>icon_arrow</title>
    <g id="UI-Design" stroke="none" stroke-width="1" fill="none" fill-rule="evenodd">
        <g id="message/room/info" transform="translate(-335.000000, -332.000000)" fill="#9676F9" fill-rule="nonzero">
            <g id="content-block-1" transform="translate(16.000000, 118.000000)">
                <path d="M319.510018,229 C319.442015,229 319.376442,228.987781 319.313297,228.963343 C319.250151,228.938905 319.194293,228.902249 319.145719,228.853372 C319.048573,228.75562 319,228.638319 319,228.501466 C319,228.364613 319.048573,228.247312 319.145719,228.14956 L325.8051,221.44868 L319.247723,214.865103 C319.150576,214.76735 319.102004,214.647606 319.102004,214.505865 C319.102004,214.364124 319.150576,214.24438 319.247723,214.146628 C319.34487,214.048875 319.463873,214 319.604736,214 C319.745599,214 319.864602,214.048875 319.961749,214.146628 L326.854281,221.096774 C326.951427,221.194526 327,221.311827 327,221.44868 C327,221.585533 326.951427,221.702834 326.854281,221.800587 L319.859745,228.853372 C319.811172,228.902249 319.755313,228.938905 319.692168,228.963343 C319.629022,228.987781 319.568306,229 319.510018,229 Z" id="icon_arrow"></path>
            </g>
        </g>
    </g>
</svg>