<?xml version="1.0" encoding="UTF-8"?>
<svg width="147px" height="94px" viewBox="0 0 147 94" version="1.1" xmlns="http://www.w3.org/2000/svg" xmlns:xlink="http://www.w3.org/1999/xlink">
    <title>img@3x</title>
    <defs>
        <polygon id="path-1" points="0 0.120355193 59.9688 0.120355193 59.9688 67.9998472 0 67.9998472"></polygon>
    </defs>
    <g id="Components" stroke="none" stroke-width="1" fill="none" fill-rule="evenodd">
        <g id="popup/1-block/warning" transform="translate(-84.000000, -32.000000)">
            <g id="img" transform="translate(84.000000, 32.000000)">
                <path d="M93.2221104,11.9730787 C94.2489594,12.7737972 94.8719297,13.8868562 95,14.9493436 C93.9976216,15.1301976 92.8049673,14.8277307 91.7778896,14.0267713 C90.7508119,13.2262935 90.1280703,12.1132345 90,11.0507472 C91.0026071,10.8696524 92.1952614,11.1723601 93.2221104,11.9730787" id="Fill-1" fill="#DFCFFF"></path>
                <path d="M103.296949,21.0655196 C104.734567,20.8408567 106.085814,21.2079154 107,21.9526918 C106.331661,22.944816 105.14119,23.7095443 103.703311,23.9344804 C102.265433,24.1591433 100.914446,23.7920846 100,23.0473082 C100.668339,22.055184 101.85907,21.2904557 103.296949,21.0655196" id="Fill-3" fill="#5E7EE2"></path>
                <path d="M90.0080447,37.6747173 C91.2548498,32.6949214 93.18702,29.342275 95.1222127,27.0930412 C95.1244796,27.0886181 95.1244796,27.0834146 95.1272503,27.0787314 C97.4918982,23.2072913 97.9893608,19.5757347 96.6060368,16.2857912 C95.5720701,13.8258136 93.8131932,12.4840786 93.7955617,12.4708095 C93.6834751,12.3862519 93.658539,12.223641 93.7398962,12.1073417 C93.822009,11.9910423 93.9791821,11.9652848 94.0917723,12.0495823 C94.1615431,12.1018779 100.610422,17.0793323 96.4554127,25.7039539 C97.0815859,25.1216768 97.691387,24.6452919 98.2596279,24.2589284 C101.190753,22.2641481 103.633736,22.1249532 103.736251,22.12027 C103.875289,22.1135054 103.993168,22.2246011 103.999717,22.3679589 C104.006266,22.5115768 103.89821,22.6338602 103.759928,22.6398443 C103.66371,22.6445275 94.1353475,23.2686931 90.4959359,37.804806 C90.4765411,37.8818186 90.4261652,37.9416594 90.3621877,37.9739214 C90.3103005,38 90.2493455,38.0077444 90.1891463,37.9916134 C90.0543905,37.9559691 89.9732852,37.8139123 90.0080447,37.6747173" id="Fill-5" fill="#5054A3"></path>
                <path d="M3.01389425,15.000083 L9.79480252,15.000083 C8.68686479,15.000083 7.78039367,13.650139 7.78039367,12.0000415 C7.78039367,10.349944 8.68686479,9 9.79480252,9 L35.3926412,9 C36.5005789,9 37.4067927,10.349944 37.4067927,12.0000415 C37.4067927,13.650139 36.5005789,15.000083 35.3926412,15.000083 L28.9138042,15.000083 C28.7967323,14.9689725 28.6765728,14.9500574 28.5538402,14.9500574 C27.4227454,14.9500574 26.5059822,16.315681 26.5059822,18.0001244 C26.5059822,19.6845678 27.4227454,21.0501915 28.5538402,21.0501915 C28.6765728,21.0501915 28.796475,21.0310275 28.9135469,20.999917 L46.9855911,20.999917 C48.0935289,20.999917 49,22.3501099 49,23.9999585 C49,25.650056 48.0935289,27 46.9855911,27 L21.3877525,27 C20.280072,27 19.3738582,25.650056 19.3738582,23.9999585 C19.3738582,22.3501099 20.280072,20.999917 21.3877525,20.999917 L3.01389425,20.999917 C1.90621382,20.999917 1,19.649973 1,18.0001244 C1,16.350027 1.90621382,15.000083 3.01389425,15.000083" id="Fill-7" fill="#ECF1FF"></path>
                <path d="M41.7024372,25.3146324 L40.1556215,28.3137257 L43.5301912,28.3196472 C43.6414967,28.5019253 43.8213176,28.8023753 44.0490227,29.2006582 C44.0179488,29.213016 43.9878938,29.2279484 43.9591123,29.247515 L32.5341218,37.1663159 C32.5267354,35.4181965 32.5015197,33.884537 32.4785964,32.5102422 C32.4648424,31.6802073 32.4523619,30.9014059 32.4442114,30.1532417 L40.4773123,23.8090356 L41.7024372,25.3146324 Z M48.7816727,41.4431584 L34.7900327,51.0815013 C34.306605,49.5859452 33.8282714,47.8777313 33.4367918,46.0353833 L47.3143245,36.1740844 C47.9258682,37.8349266 48.460746,39.6319625 48.7816727,41.4431584 L48.7816727,41.4431584 Z M41.9123131,59.0880944 L29.4033035,58.1803081 C29.1592974,57.7709546 28.5508102,56.7061207 27.8246498,55.1428539 L36.4896707,57.7356833 L36.6335783,58.0175965 L47.8828232,50.2200569 C44.4124849,57.2331311 42.3142356,58.8308968 41.9123131,59.0880944 L41.9123131,59.0880944 Z M25.4057285,48.6436599 L34.2065065,52.1352646 C34.8914048,54.1503649 35.5546533,55.7216128 35.9700751,56.6443315 L27.3402033,54.0620578 C26.6935106,52.5641847 26.0012258,50.7290454 25.4057285,48.6436599 L25.4057285,48.6436599 Z M24.089929,41.9856161 C23.8634974,39.8876153 23.8102644,37.6719576 24.0127538,35.3888466 L31.6533563,38.327438 C31.6772984,40.6810916 31.9490673,42.9873735 32.3540463,45.1399548 L24.089929,41.9856161 Z M25.2052767,47.6001948 C25.175731,47.5886093 25.145676,47.5806282 25.115621,47.5754791 C24.7460459,46.1414547 24.4294491,44.606508 24.2101492,42.9907204 L32.5601016,46.1777559 C32.9324784,47.9366885 33.3835587,49.5723001 33.8438084,51.0276932 L25.2052767,47.6001948 Z M48.5307895,48.6827931 L36.9713155,56.6955651 C36.6126926,55.9288641 35.8653919,54.2425338 35.0849796,51.9643145 L48.9332214,42.4248343 C49.2195084,44.5928629 49.1632189,46.7482762 48.5307895,48.6827931 L48.5307895,48.6827931 Z M46.985502,35.3113526 L33.2424529,45.0766208 C32.8328893,42.9232672 32.5583186,40.610034 32.5392159,38.2507164 L44.4611333,29.9876981 C44.4677556,29.9830639 44.472595,29.9766276 44.4789626,29.9717359 C45.1855107,31.2664771 46.1324992,33.1451263 46.985502,35.3113526 L46.985502,35.3113526 Z M25.2047673,29.2372168 C25.4187184,28.540801 25.6497347,27.8709031 25.8924673,27.2241761 L31.5570783,30.2093669 C31.5652288,30.9451733 31.5777093,31.7108445 31.5912086,32.5249172 C31.6146413,33.9476135 31.6408758,35.54126 31.6469887,37.3650712 L24.1047019,34.4645831 C24.309229,32.7481307 24.6630124,30.9984665 25.2047673,29.2372168 L25.2047673,29.2372168 Z M28.9453462,21.0292939 L31.8423465,22.5560021 C31.5973215,24.9057939 31.5405225,26.9365989 31.5494372,29.1934494 L26.2182334,26.3841005 C27.051624,24.3252328 28.0029424,22.5392675 28.9453462,21.0292939 L28.9453462,21.0292939 Z M36.5299139,18.9565237 L39.9136529,23.1157092 L32.436825,29.0206971 C32.4319856,26.8233187 32.4938786,24.8298446 32.7399224,22.5189285 L36.5299139,18.9565237 Z M31.9500861,21.600844 L29.4310663,20.273406 C30.7654591,18.2565035 32.0349025,16.8057446 32.8721136,15.9386362 C32.4465037,18.1161906 32.150538,19.9508149 31.9500861,21.600844 L31.9500861,21.600844 Z M35.9652357,18.2619101 L32.9042063,21.1392272 C33.1148463,19.53554 33.4136138,17.7526641 33.834639,15.6430778 L35.9652357,18.2619101 Z M40.8947717,22.9094878 L33.6471771,14 L33.3040912,14.2865474 C33.085046,14.4693405 28.3972238,18.4531992 25.3114881,26.2535708 C25.2783766,26.2860101 25.2480669,26.3230836 25.225653,26.366851 C25.1874474,26.440998 25.173184,26.5208091 25.1777687,26.5985605 C24.8871517,27.3552207 24.6110529,28.1443203 24.3568586,28.9710083 C23.7679835,30.8857012 23.3943332,32.7864914 23.1910796,34.6478911 C23.1791085,34.6947479 23.1742691,34.7413473 23.1773256,34.7876892 C22.9073396,37.366101 22.9631197,39.8662465 23.2267381,42.2186129 C23.2094183,42.3110392 23.2203705,42.4044954 23.2575573,42.486881 C23.8372629,47.3491761 25.2921306,51.56114 26.5625929,54.4940673 C26.5745639,54.5754231 26.6074207,54.6521447 26.6588709,54.7149637 C27.7851708,57.2774134 28.7420927,58.8077259 28.7716383,58.8540678 L28.8916038,59.0427823 L42.0824552,60 L42.1792426,59.959837 C42.4120418,59.8630339 44.447634,58.8471165 48.1026326,51.7601527 C48.3382335,51.3034275 48.5812209,50.8201845 48.8300664,50.3117108 C50.6107002,46.6743866 50.3577794,41.7412913 48.0779263,35.6493911 C46.3971364,31.1575737 44.1705164,27.6621071 44.1486119,27.6276081 L44.0176941,27.4234463 L41.6178756,27.4190696 L42.7607312,25.2031544 L40.8952811,22.9100027 L40.8952811,22.9097452 C40.8950264,22.9097452 40.8950264,22.9094878 40.8947717,22.9094878 L40.8947717,22.9094878 Z" id="Fill-9" fill="#5E7EE2"></path>
                <g id="Group-13" transform="translate(0.000000, 26.000000)">
                    <mask id="mask-2" fill="white">
                        <use xlink:href="#path-1"></use>
                    </mask>
                    <g id="Clip-12"></g>
                    <path d="M46.0181617,38.2267985 C45.2021617,36.382394 43.3179064,32.4493453 41.7594383,31.6414951 C39.7082043,30.5781993 37.1499064,31.2813753 36.0132255,27.8508135 C34.8765447,24.419997 35.7716936,19.6574502 35.7716936,19.6574502 C35.7716936,19.6574502 35.9496511,14.9292854 33.5261617,13.5206412 C31.102417,12.111997 29.2610553,12.7810457 27.8830979,14.2994577 C26.5048851,15.817615 25.1902468,17.1149633 22.9488,16.7140944 C20.7073532,16.3134801 18.4738213,14.2421543 17.1829277,10.5283865 C15.8917787,6.81461873 13.6301617,4.01846891 10.5533106,2.42339775 C7.47620426,0.82807191 2.49441702,0.123113109 2.49441702,0.123113109 C2.49441702,0.123113109 -1.89732766,-0.174864419 0.97373617,5.42380225 C3.84505532,11.0224689 13.8801191,23.6834577 13.8801191,23.6834577 C13.8801191,23.6834577 17.6659915,26.9148584 13.0881191,33.0155026 C8.51050213,39.1164015 9.06505532,40.4695251 9.06505532,40.4695251 C9.06505532,40.4695251 6.57518298,50.9555326 20.2324596,50.8256449 C31.5745021,50.7176599 26.9887149,58.488761 26.9887149,58.488761 C26.9887149,58.488761 23.5554383,66.3500195 31.5586723,67.2006562 C37.7108426,67.8546787 43.6503319,67.9998472 45.0267574,67.9998472 C53.2789277,67.9998472 59.9688,61.3269333 59.9688,53.0953678 C59.9688,45.1961618 53.8076936,38.7364165 46.0181617,38.2267985" id="Fill-11" fill="#DFCFFF" mask="url(#mask-2)"></path>
                </g>
                <path d="M15.1445601,42.2703196 C15.377196,41.9680738 15.8052768,41.9103817 16.1043435,42.1424268 C16.2377179,42.2463238 19.40844,44.727343 22.6307164,48.4193875 C24.5287381,50.5945871 26.0199675,52.6944806 27.1023528,54.7098779 L28.8611007,46.4930812 C28.9406124,46.1198689 29.3045708,45.8801656 29.6736591,45.9577692 C30.026845,46.026183 30.2774352,46.3999058 30.1974105,46.7731181 L28.0634186,56.7426339 C28.8380166,58.6324359 29.2330103,60.4405498 29.2335233,62.1554883 C29.2337798,63.4538178 29.3063663,64.6219569 29.4669286,65.683391 C29.4753928,65.7145345 29.4846264,65.7451675 29.4887302,65.778098 C29.4918081,65.8013281 29.4900127,65.8240476 29.4907822,65.8467671 C30.27051,70.6717227 32.9692915,73.2175819 39.4841225,75.2906714 L39.9227194,64.2561476 C39.9378522,63.875277 40.2558991,63.5763498 40.633195,63.5880925 C41.0125429,63.6028984 41.3041713,63.9189291 41.2890384,64.2995443 L40.8358217,75.6970694 C41.9497552,76.0169292 43.1565378,76.3283649 44.4756628,76.6375031 C44.8524458,76.7327207 45.0689228,77.0947009 44.9801775,77.465871 C44.8919452,77.8367858 44.5228569,78.0680651 44.1558205,77.9820373 C42.7787289,77.6593696 41.4988468,77.3356807 40.3105313,76.9974411 C33.2014144,74.9725985 29.4161437,72.4356741 28.2575811,66.6442466 L19.3794567,67.8726307 C19.2835297,67.8861603 19.1893981,67.8790126 19.1019352,67.8537403 C18.8482671,67.7817527 18.6502573,67.5637477 18.6143488,67.2834556 C18.5661288,66.9056484 18.8308259,66.5577084 19.2053004,66.5061428 L28.0403345,65.2833748 C27.9238884,64.3276246 27.8664347,63.2927391 27.8661782,62.1679968 C27.8638698,53.1552522 15.389251,43.3360934 15.2630582,43.2378125 C14.9655305,43.0060226 14.9124372,42.5728207 15.1445601,42.2703196" id="Fill-14" fill="#FFFFFF"></path>
                <path d="M105.45538,13 L105.54462,13 C105.835408,10.6752113 107.674958,8.83540845 110,8.54461972 L110,8.41228169 C107.689662,8.12301408 105.859493,6.30425352 105.550958,4 L105.448789,4 C105.140254,6.30425352 103.310338,8.12301408 101,8.41228169 L101,8.54461972 C103.324789,8.83540845 105.164338,10.6752113 105.45538,13" id="Fill-16" fill="#5E7EE2"></path>
                <path d="M32.4553803,94 L32.5446197,94 C32.835662,91.6752113 34.6752113,89.835662 37,89.5446197 L37,89.4122817 C34.689662,89.1232676 32.8597465,87.304507 32.5512113,85 L32.4490423,85 C32.140507,87.304507 30.310338,89.1232676 28,89.4122817 L28,89.5446197 C30.3250423,89.835662 32.1645915,91.6752113 32.4553803,94" id="Fill-18" fill="#A372E7"></path>
                <path d="M93.2041082,36.3664269 C93.2041082,36.3664269 97.420059,30.9468033 99.6387804,30.4952109 C101.857502,30.0436186 104.076477,31.3983956 106.073453,28.4629165 C108.070682,25.5274375 108.514426,20.7850734 108.514426,20.7850734 C108.514426,20.7850734 109.623914,16.2688923 112.286633,15.5913748 C114.949352,14.9141153 116.502584,16.0432251 117.390072,17.8495944 C118.277307,19.6562215 119.165049,21.2366657 121.384024,21.4625908 C123.602746,21.6885159 126.265465,20.3334811 128.48444,17.1720769 C130.703414,14.0106728 133.588132,11.9783784 136.916088,11.3011189 C140.24455,10.6236014 145.126244,11.3011189 145.126244,11.3011189 C145.126244,11.3011189 149.342195,12.2043035 145.126244,16.7204846 C140.910293,21.2366657 128.040695,30.4952109 128.040695,30.4952109 C128.040695,30.4952109 123.602746,32.5275053 126.265465,39.527831 C128.928184,46.5281568 128.040695,47.6570086 128.040695,47.6570086 C128.040695,47.6570086 127.552349,58.2383505 114.727353,54.4314092 C104.076477,51.270263 106.295452,59.8510329 106.295452,59.8510329 C106.295452,59.8510329 107.404939,68.2063935 99.6387804,66.8513586 C91.8726219,65.4965816 90.3193902,64.3674719 90.3193902,64.3674719 L81,49.9152281 L93.2041082,36.3664269 Z" id="Fill-20" fill="#DFCFFF"></path>
                <path d="M128.951899,24.4201044 C128.81348,24.0781082 128.42262,23.9112994 128.075418,24.0476409 C127.920307,24.1088295 124.230768,25.5735483 120.161925,28.1488027 C117.764894,29.6658238 115.7749,31.2206752 114.196567,32.8049784 L114.769759,24.7138607 C114.79621,24.3462211 114.516034,24.0275832 114.144179,24.0021937 C113.790299,23.9722341 113.450287,24.2527878 113.42435,24.6206813 L112.728661,34.4380294 C111.476986,35.9872951 110.607696,37.5611887 110.139024,39.1526009 C109.784118,40.3575854 109.39634,41.4226738 108.953862,42.3656389 C108.93717,42.392044 108.919964,42.4181951 108.907123,42.4476469 C108.897878,42.4684663 108.893513,42.4897934 108.886579,42.5108667 C106.828275,46.7831536 103.5694,48.4327077 96.8151322,48.634808 L99.4119596,38.2769179 C99.5015851,37.9194341 99.2809883,37.5576341 98.9196615,37.4692788 C98.5552531,37.3821929 98.1921287,37.5987651 98.1022464,37.955995 L95.4204161,48.6546117 C94.275059,48.6566429 93.0436718,48.6269372 91.7059667,48.5652408 C91.3222978,48.5540694 91.0177253,48.8328459 91.0007761,49.2004854 C90.9830564,49.5683789 91.2709365,49.8806695 91.6427923,49.8979343 C93.0387925,49.9624236 94.3431128,50 95.5639709,50 C102.869859,50 107.158014,48.6462332 109.840101,43.5767168 L117.937467,47.0642151 C118.025039,47.1017915 118.116462,47.1200719 118.206344,47.1200719 C118.467003,47.1200719 118.714564,46.9700201 118.824991,46.7191721 C118.973939,46.3814921 118.8178,45.988463 118.475991,45.841458 L110.417916,42.3712246 C110.789515,41.5148376 111.127216,40.5695875 111.434613,39.5255723 C113.897901,31.160756 128.428527,25.3445352 128.574907,25.2869011 C128.921082,25.1500518 129.089804,24.7623546 128.951899,24.4201044" id="Fill-22" fill="#FFFFFF"></path>
                <path d="M69.8996562,59.9161758 C63.0445393,56.3769039 57.4598212,51.0451587 53.3006188,44.0691289 C52.3130066,42.4131718 51.4069819,40.6620595 50.5805302,38.8249266 C49.7825335,40.1368019 47.3253381,40.6975841 44.667951,40.0779324 C41.6673422,39.3783502 39.5498431,37.4392108 39.9383912,35.7467141 C40.3269394,34.0539637 43.0747275,33.2490762 46.0753362,33.9486584 C47.2666655,34.2265121 48.314713,34.7012739 49.1260559,35.2767735 C48.4819171,33.5464684 47.9009836,31.7504427 47.3885432,29.8886964 C46.6167351,31.2294988 44.136121,31.8082972 41.4517899,31.1825555 C38.4509293,30.4829733 36.3334302,28.5435802 36.7219784,26.8510835 C37.1107783,25.158333 39.8583146,24.3534456 42.8591752,25.0530278 C44.4642339,25.4273055 45.8116876,26.1573375 46.6630688,27.013482 C46.4669061,26.1659649 46.2828305,25.3075367 46.1128564,24.4359135 C45.7948161,22.8040625 45.5377146,21.200885 45.3304721,19.6451583 C44.4390526,20.9445999 41.8410935,21.2064675 39.205866,20.1858945 C36.3309121,19.0724499 34.5017394,16.8552031 35.1201932,15.2337558 C35.7386469,13.6120547 38.5705407,13.1999685 41.4457464,14.3134131 C43.0268829,14.9257061 44.2909863,15.8721848 45.0061364,16.8696667 C44.7787489,14.6141041 44.6520867,12.4955651 44.5906443,10.5810392 C44.5125821,10.6893895 44.4272174,10.7919035 44.3259884,10.8809689 C43.0291492,12.0253707 40.3327311,11.0603685 38.3036185,8.72538282 C36.2745059,6.39065088 35.6807298,3.56973849 36.9780726,2.42533668 C38.2749117,1.28068112 40.9713299,2.24593711 43.0006943,4.58066904 C43.6863823,5.37007792 44.2038588,6.21404253 44.5440588,7.03085615 C44.5674774,3.15815983 44.8296152,0.727003798 44.8354069,0.676000524 C44.8835033,0.257824431 45.2561872,-0.0421052668 45.6704202,0.0048380446 C46.0851569,0.0520351037 46.383304,0.428596586 46.3367186,0.846518931 C46.3316823,0.890924766 46.128217,2.7813446 46.0677818,5.87173698 C46.3009611,5.41346876 46.5807258,4.9544393 46.9100977,4.50733598 C48.7455658,2.01502676 51.3558638,0.83383155 52.740334,1.86912188 C54.1248042,2.90441221 53.7591711,5.76414799 51.923703,8.2564572 C50.0960412,10.7383628 47.5003484,11.919558 46.1113455,10.9068512 C46.1720326,12.5793018 46.2838377,14.4037473 46.4704315,16.335528 C46.8781174,15.3951393 47.5620427,14.4133897 48.4849389,13.5364379 C50.7260784,11.4072415 53.501566,10.7061368 54.6843336,11.9700538 C55.8668495,13.2342244 55.0089211,15.9851025 52.7680334,18.1140451 C50.7119768,20.0673944 48.2097068,20.8139199 46.8964998,19.9486405 C47.0876262,21.3153252 47.3177837,22.7175346 47.5955339,24.1425813 C47.7501473,24.9365576 47.9181069,25.7183541 48.0946281,26.4917768 C48.4516995,25.3430613 49.2914973,24.0760994 50.5158142,22.995642 C52.8330013,20.9509436 55.6321593,20.3528604 56.7680897,21.6599145 C57.9037683,22.9667148 56.9463736,25.6838444 54.6289347,27.7287965 C52.5771589,29.5392859 50.1496774,30.2124783 48.831686,29.4362643 C49.4722993,31.76922 50.2214443,33.995348 51.0713146,36.1131257 C51.2062866,35.0702229 51.6169943,33.8996851 52.302934,32.7705082 C53.9110146,30.1234129 56.4064856,28.7128298 57.877076,29.6197239 C59.3476664,30.5266179 59.2358613,33.4079222 57.6282844,36.0550175 C56.1798535,38.439484 54.0114881,39.8198711 52.5205008,39.4075312 C53.1669059,40.7521399 53.8573783,42.047014 54.5954435,43.2850487 C58.607335,50.0136746 63.9880842,55.1530791 70.5888696,58.5609097 C70.9356166,58.7400556 71.0867047,59.1521417 70.94997,59.5106871 C70.9401493,59.5360619 70.9290695,59.5611829 70.9167306,59.5857964 C70.7263597,59.9598204 70.2713328,60.1077553 69.8996562,59.9161758" id="Fill-24" fill="#DFCFFF"></path>
                <path d="M75.4578827,76.5828358 C81.2552257,77.8874814 87.1679936,77.4648969 93.0325841,75.326434 C94.4247092,74.8187135 95.814576,74.2124415 97.1994243,73.5138099 C97.036073,74.7119064 98.2249498,76.2897613 100.106376,77.2520568 C102.230948,78.3387025 104.433055,78.2282836 105.024733,77.0056782 C105.616161,75.7828148 104.373335,73.9108535 102.249014,72.8242078 C101.405158,72.3925938 100.551264,72.1529229 99.7889577,72.0935857 C101.013215,71.3678653 102.23145,70.5706822 103.441404,69.6991986 C103.248695,70.9014229 104.442339,72.5019808 106.343087,73.4738218 C108.467909,74.5607254 110.669765,74.4503065 111.261444,73.2274432 C111.852871,72.0048378 110.610297,70.1326185 108.485474,69.0459728 C107.34904,68.4647257 106.192783,68.2291826 105.270639,68.3199944 C105.799084,67.9041177 106.326024,67.4761155 106.850455,67.0326341 C107.832821,66.2026865 108.765003,65.3593235 109.644491,64.5198304 C109.543118,65.7571411 110.960586,67.2245772 113.023932,67.9324964 C115.27497,68.7046546 117.440442,68.2802643 117.86099,66.9849063 C118.281538,65.6892903 116.797575,64.0131419 114.546538,63.2409837 C113.30848,62.8163353 112.096769,62.7539022 111.186418,62.9992488 C112.417951,61.7446529 113.52302,60.5230795 114.490331,59.3923179 C114.484058,59.497319 114.485062,59.6028361 114.501873,59.7075793 C114.716915,61.0550509 116.789546,61.8277251 119.131417,61.4324874 C121.473038,61.0377657 123.197135,59.6252811 122.981842,58.2772935 C122.767052,56.9295639 120.694421,56.1571477 118.35255,56.5521274 C117.561136,56.6857652 116.843243,56.9375616 116.243786,57.2613366 C118.112165,54.8997139 119.137941,53.2929644 119.159521,53.2589099 C119.333913,52.9807988 119.258385,52.6111019 118.988892,52.4310263 C118.719651,52.2509506 118.359325,52.329121 118.183678,52.6062002 C118.16511,52.6358688 117.367423,53.8853049 115.901024,55.7908047 C115.985084,55.395567 116.041542,54.9760784 116.063121,54.5390467 C116.183314,52.1020915 115.204962,50.0706936 113.878328,50.0018108 C112.551694,49.93267 111.379127,51.8521011 111.259185,54.2887982 C111.139746,56.7154339 112.109315,58.7393501 113.427418,58.8242282 C112.578543,59.8084526 111.625283,60.859238 110.575167,61.937628 C110.789958,61.1616 110.860468,60.2214915 110.737766,59.2246257 C110.439919,56.8039238 109.130097,54.9807222 107.812246,55.1522843 C106.494394,55.3235883 105.667851,57.424643 105.965697,59.8453449 C106.238953,62.0658481 107.364096,63.7791467 108.565519,63.9151064 C107.787655,64.6483085 106.969142,65.3833164 106.111233,66.1080049 C105.633474,66.5120142 105.153708,66.9020921 104.672436,67.2823665 C105.018711,66.4057231 105.134889,65.2138183 104.932142,63.9414212 C104.547978,61.5338767 103.173919,59.7612408 101.863094,59.9823366 C100.552519,60.2034323 99.801253,62.3344136 100.185417,64.7422161 C100.525419,66.8739714 101.641779,68.5049719 102.803054,68.6979469 C101.287976,69.7907843 99.7606033,70.7644312 98.2254517,71.6212096 C98.6525239,70.920514 98.9767175,70.0033665 99.1177366,68.9729622 C99.4482032,66.5569041 98.6500147,64.4439819 97.3346723,64.2538447 C96.0190789,64.0637076 94.6849172,65.868076 94.3544505,68.2841341 C94.0568549,70.4605213 94.6753821,72.389756 95.7623839,72.8905108 C94.7243122,73.3809461 93.6844841,73.8187518 92.6436522,74.1985102 C86.9868266,76.2608667 81.2885985,76.6697777 75.7067991,75.4133759 C75.4134692,75.347589 75.1234013,75.5217309 75.0305595,75.8078397 C75.0240355,75.8279627 75.0182642,75.8488598 75.0134967,75.8700148 C74.9449945,76.1930158 75.1439771,76.512147 75.4578827,76.5828358" id="Fill-26" fill="#5E7EE2"></path>
                <path d="M67.7419759,66.584083 C67.746804,68.8847815 69.5140691,70.5895991 71.8856829,70.5812636 C74.2629919,70.5728667 76.030038,68.8590555 76.0226139,66.5696513 C76.0151428,64.2681162 74.2516015,62.5741746 71.8710068,62.5812636 C69.4761741,62.5883971 67.737385,64.2741817 67.7419759,66.584083 M72.0274058,35.5850163 C71.4164858,35.5850163 70.8055658,35.5847972 70.1946458,35.5850163 C70.1120654,35.5850163 70.029485,35.5845782 69.9469045,35.5850163 C68.3862,35.5944361 67.5253482,36.5127575 67.6841567,38.0762261 C67.8996983,40.1943678 68.1612395,42.3079091 68.4035046,44.423422 C68.7449977,47.4081857 69.0838623,50.3931685 69.4297363,53.3774941 C69.5626974,54.5245196 69.6676206,55.6774599 69.8656384,56.8139703 C70.0373706,57.7962587 70.7225473,58.4159943 71.6015799,58.5476525 C73.0199044,58.7594886 74.0651931,57.9579289 74.2618966,56.484058 C74.3885054,55.5352865 74.4848857,54.5823528 74.5930946,53.6311716 C75.0476155,49.646156 75.5036698,45.6611405 75.9540289,41.6754678 C76.1021042,40.3637052 76.2966173,39.0530379 76.3577312,37.736894 C76.4192832,36.4126447 75.5788027,35.6117423 74.2566395,35.5878642 C73.5140727,35.5745012 72.7706298,35.5856735 72.0274058,35.5850163 M72.0080945,78.9992087 C62.3119742,78.9992087 52.6156003,79.0017725 42.9192264,78.9976705 C40.212489,78.996645 38.277982,77.7183543 37.3721012,75.3222644 C36.7533024,73.6853037 36.920936,72.0942343 37.7659514,70.5780268 C40.974068,64.8213604 44.1892855,59.0685397 47.4009526,53.3139244 C53.7307061,41.9731327 60.0546267,30.6290081 66.3990894,19.2966769 C66.9410455,18.3291139 67.4862986,17.3013026 68.2595434,16.5398659 C70.773033,14.0655813 74.9301435,14.6555025 76.7015818,17.7179136 C78.7469146,21.2528257 80.7032317,24.8405512 82.6945465,28.4072539 C89.5246647,40.6386957 96.3532614,52.8709067 103.181858,65.1028612 C104.224686,66.9705603 105.289832,68.8254405 106.301973,70.709804 C108.108409,74.0721751 106.246687,78.1506042 102.580812,78.8769174 C102.041645,78.9838262 101.477879,78.9940812 100.925271,78.9943376 C91.2862124,79.0012597 81.6471535,78.9992087 72.0080945,78.9992087" id="Fill-36" fill="#FFCE00"></path>
                <path d="M116.101645,72.6666667 L109.709615,72.6666667 C110.753659,72.6666667 111.608225,71.6167815 111.608225,70.3330781 C111.608225,69.0498851 110.753659,68 109.709615,68 L90.0591911,68 C89.0148917,68 88.1605809,69.0498851 88.1605809,70.3330781 C88.1605809,71.6167815 89.0148917,72.6666667 90.0591911,72.6666667 L91.6862069,72.6666667 C91.7966297,72.6424169 91.9098578,72.6278671 92.025636,72.6278671 C93.0916119,72.6278671 93.9558684,73.6900047 93.9558684,75 C93.9558684,76.3099953 93.0916119,77.3723881 92.025636,77.3723881 C91.9098578,77.3723881 91.7966297,77.3575831 91.6864619,77.3333333 L81.8986102,77.3333333 C80.8543108,77.3333333 80,78.3834737 80,79.6669219 C80,80.9501149 80.8543108,82 81.8986102,82 L98.7808119,82 C99.8251112,82 100.679422,80.9501149 100.679422,79.6669219 C100.679422,78.3834737 99.8251112,77.3333333 98.7808119,77.3333333 L116.101645,77.3333333 C117.145944,77.3333333 118,76.2834482 118,75 C118,73.7165518 117.145944,72.6666667 116.101645,72.6666667" id="Fill-42" fill="#ECF1FF"></path>
            </g>
        </g>
    </g>
</svg>